<svg id="Layer_1" data-name="Layer 1" xmlns="http://www.w3.org/2000/svg" viewBox="0 0 500 500"><title>bg_img</title><g id="BACKGROUND"><rect width="500" height="500" fill="#db8a74"/></g><g id="OBJECTS"><ellipse cx="257.05" cy="238.68" rx="225.66" ry="180.67" fill="#fff2eb"/><path d="M59.26,376.89c-4.9-5.68-12.13-8.65-18.81-12.05s-13.5-7.92-16.08-15c-.9-2.48-.93-5.83,1.36-7.14s5.11.36,7.18,2c3.26,2.63,6.44,5.38,9.5,8.24a8.64,8.64,0,0,0,3.66,2.43c1.44.36,3.25-.32,3.58-1.76s-.86-2.75-2-3.68C41.92,345.23,35,342.23,28.9,338s-11.7-10-12.56-17.43c-.32-2.81.38-6.16,2.93-7.4a5.82,5.82,0,0,1,5.33.47,15.76,15.76,0,0,1,4,3.77,133.23,133.23,0,0,1,11.86,16.64c1,1.7,2.72,3.69,4.56,3a2.83,2.83,0,0,0,1.49-3A7.73,7.73,0,0,0,45,330.77c-4.6-6.67-10.24-12.57-14.88-19.21s-8.33-14.34-8.24-22.45c.06-4.64,2.27-10.11,6.87-10.79a7.92,7.92,0,0,1,6.43,2.37,17.19,17.19,0,0,1,3.7,6c5.33,13,4.19,28.1,10.3,40.76.44.92,1.1,1.95,2.12,2a2.08,2.08,0,0,0,1.94-1.73,6,6,0,0,0-.25-2.79q-2-8.24-3.39-16.6a17.28,17.28,0,0,1-.22-6,6.08,6.08,0,0,1,3.51-4.63A5.88,5.88,0,0,1,59,299.42a12.58,12.58,0,0,1,2.82,6c2.81,12.1-1.77,24.85.16,37.12.28,1.8,1.48,4.08,3.23,3.56,1.39-.41,1.64-2.23,1.63-3.68q0-7.1-.08-14.18a14.16,14.16,0,0,1,.66-5.41,4.86,4.86,0,0,1,4-3.26c2.57-.1,4.41,2.46,5.31,4.87,2.66,7.08,1.63,15-.38,22.29s-5,14.33-6.17,21.8c-.72,4.48.11,8.48,4.41,13.27,1.47,1.64,6.54,7.61,5.58,9C76.23,396.23,60.9,378.79,59.26,376.89Z" transform="translate(0 -0.87)" fill="#e54c4c"/><path d="M72.87,324.35c-.07-.68-1.11-.48-1.05.2A73.79,73.79,0,0,1,66.41,360a71.07,71.07,0,0,1-4.25,8.51c-2.41-5.71-4.21-11.75-6.06-17.44-.15-.48-.33-.95-.49-1.43v-.07A118.33,118.33,0,0,0,57,313.06q-.61-5.19-1.7-10.3a.53.53,0,0,0-.71-.23.51.51,0,0,0-.29.43,117.5,117.5,0,0,1,1.87,36.32c-.29,2.78-.71,5.55-1.2,8.31a171.87,171.87,0,0,0-7.54-18c-3.29-6.81-6.8-13.52-9.89-20.43A90.87,90.87,0,0,1,29.89,285c-.1-.67-1.15-.48-1.05.2,2.28,15.28,9.78,29,16.5,42.68,2.5,5.11,4.88,10.27,6.94,15.56a60.72,60.72,0,0,1-30.75-24.28c-.36-.57-1.32-.11-1,.47A62.18,62.18,0,0,0,44.06,341a62.87,62.87,0,0,0,8.4,3.61.66.66,0,0,0,.28,0c.58,1.51,1.13,3,1.64,4.56,1.67,5,3.15,10.11,5,15.09a50.47,50.47,0,0,1-24-10.39,48,48,0,0,1-5.62-5.23c-.47-.5-1.27.19-.81.7A51.59,51.59,0,0,0,52.3,363.82a50.27,50.27,0,0,0,7.48,1.59c.81,2.17,1.69,4.31,2.69,6.4,3.28,6.86,7.85,13.3,14.31,17.48.58.37,1.18-.51.6-.88-7-4.53-11.4-11.28-14.68-18.7a75,75,0,0,0,10.47-35A74.63,74.63,0,0,0,72.87,324.35Z" transform="translate(0 -0.87)" fill="#ad3434"/><path d="M343.88,201.74c3.81-4.42,9.44-6.74,14.65-9.38S369,186.19,371,180.71c.71-1.93.73-4.54-1.06-5.56s-4,.28-5.58,1.58q-3.83,3.06-7.4,6.41a6.71,6.71,0,0,1-2.85,1.89,2.27,2.27,0,0,1-2.79-1.37c-.26-1.12.67-2.14,1.56-2.87,4.46-3.65,9.84-6,14.6-9.25s9.11-7.89,9.77-13.62c.26-2.19-.29-4.79-2.28-5.76a4.53,4.53,0,0,0-4.14.36,12.29,12.29,0,0,0-3.16,2.94,103.69,103.69,0,0,0-9.23,13c-.8,1.32-2.12,2.87-3.55,2.3a2.22,2.22,0,0,1-1.16-2.36,6,6,0,0,1,1.19-2.53c3.58-5.19,8-9.78,11.58-15s6.5-11.16,6.5-17.47c0-3.62-1.77-7.87-5.35-8.4a6.14,6.14,0,0,0-5,1.84,13.32,13.32,0,0,0-2.89,4.67c-4.15,10.12-3.25,21.88-8,31.73-.35.72-.86,1.52-1.66,1.56a1.61,1.61,0,0,1-1.51-1.34,4.88,4.88,0,0,1,.2-2.18q1.57-6.41,2.63-12.92a13.26,13.26,0,0,0,.18-4.7,4.74,4.74,0,0,0-2.74-3.6,4.6,4.6,0,0,0-4.73,1.37,9.88,9.88,0,0,0-2.2,4.65c-2.18,9.42,1.39,19.35-.12,28.9-.22,1.4-1.15,3.18-2.51,2.77-1.08-.32-1.28-1.74-1.27-2.86l.06-11a11.06,11.06,0,0,0-.51-4.2,3.8,3.8,0,0,0-3.13-2.54c-2-.08-3.43,1.91-4.14,3.79-2.06,5.51-1.27,11.68.3,17.35s3.87,11.16,4.8,17c.57,3.49-.08,6.61-3.43,10.34-1.15,1.27-5.09,5.92-4.34,7C330.67,216.79,342.61,203.22,343.88,201.74Z" transform="translate(0 -0.87)" fill="#e54c4c"/><path d="M333.29,160.83c0-.52.86-.37.81.16a57.52,57.52,0,0,0,4.21,27.59,58.53,58.53,0,0,0,3.31,6.63c1.88-4.45,3.28-9.15,4.72-13.58.12-.38.26-.74.38-1.12h0a92.5,92.5,0,0,1-1-28.42c.32-2.69.77-5.36,1.32-8,.11-.52.93-.37.82.15a91.29,91.29,0,0,0-1.46,28.27c.23,2.17.55,4.33.93,6.47a139.39,139.39,0,0,1,5.87-14c2.57-5.3,5.3-10.52,7.7-15.9a73.17,73.17,0,0,0,5.91-18.82c.08-.53.89-.37.81.15-1.77,11.9-7.61,22.57-12.84,33.23-2,4-3.8,8-5.41,12.11a47.66,47.66,0,0,0,19.78-13.39,46.52,46.52,0,0,0,4.16-5.51c.29-.44,1-.08.74.37a48.41,48.41,0,0,1-18.28,16.66,47.18,47.18,0,0,1-6.54,2.81.41.41,0,0,1-.22,0c-.44,1.18-.87,2.36-1.27,3.55-1.3,3.91-2.45,7.88-3.86,11.75a38.92,38.92,0,0,0,23.05-12.16c.36-.39,1,.15.62.54a40,40,0,0,1-24,12.52c-.63,1.68-1.31,3.35-2.09,5-2.55,5.34-6.11,10.36-11.15,13.61-.44.29-.91-.4-.46-.68,5.45-3.53,8.88-8.79,11.43-14.57A58.39,58.39,0,0,1,333.13,169,57.27,57.27,0,0,1,333.29,160.83Z" transform="translate(0 -0.87)" fill="#ad3434"/><path d="M377.66,306.93q-.77,12.7-2.76,25.29a262.28,262.28,0,0,1-25.61,78.51,2.59,2.59,0,0,1,.74.87l.13-.06q4.18-8.12,7.79-16.51a265.34,265.34,0,0,0,14.19-43,263,263,0,0,0,6.67-45C378.85,306.3,377.7,306.18,377.66,306.93Z" transform="translate(0 -0.87)" fill="#e54c4c"/><path d="M377.59,316.36s11.75-19.11,2.34-39.11C379.93,277.25,367.85,297.06,377.59,316.36Z" transform="translate(0 -0.87)" fill="#e54c4c"/><path d="M378.89,285.3c0-.74,1.15-.62,1.15.12a206.34,206.34,0,0,1-1.87,29.18c-.1.73-1.25.62-1.15-.12A204.86,204.86,0,0,0,378.89,285.3Z" transform="translate(0 -0.87)" fill="#ad3434"/><path d="M376.83,322s20.25-4.24,27.69-23.22C404.52,298.8,383.58,303.25,376.83,322Z" transform="translate(0 -0.87)" fill="#e54c4c"/><path d="M398.47,303.21c.49-.48,1.13.37.64.84a187.83,187.83,0,0,1-20.74,17.23c-.56.4-1.21-.44-.65-.84A192.11,192.11,0,0,0,398.47,303.21Z" transform="translate(0 -0.87)" fill="#ad3434"/><path d="M375.15,331s17.93-.07,27.57-14.89C402.72,316.15,384.16,316.28,375.15,331Z" transform="translate(0 -0.87)" fill="#e54c4c"/><path d="M396.8,318.84c.51-.32.91.52.41.83a163.62,163.62,0,0,1-20.62,11c-.55.24-.95-.59-.41-.83A162.34,162.34,0,0,0,396.8,318.84Z" transform="translate(0 -0.87)" fill="#ad3434"/><path d="M373.88,339.49s17.76,2.51,29.42-10.78C403.3,328.71,384.91,326.18,373.88,339.49Z" transform="translate(0 -0.87)" fill="#e54c4c"/><path d="M397.06,330.53c.54-.25.82.64.28.88a165.4,165.4,0,0,1-22,7.94c-.57.16-.85-.72-.28-.88A165.4,165.4,0,0,0,397.06,330.53Z" transform="translate(0 -0.87)" fill="#ad3434"/><path d="M372.49,348.08s16.07,3.7,27.8-7.56C400.29,340.52,383.64,336.76,372.49,348.08Z" transform="translate(0 -0.87)" fill="#e54c4c"/><path d="M394.43,341.69c.52-.18.7.65.19.83a150.3,150.3,0,0,1-20.77,5.54c-.54.11-.73-.72-.19-.82A151.76,151.76,0,0,0,394.43,341.69Z" transform="translate(0 -0.87)" fill="#ad3434"/><path d="M370.83,355s13.46,5,24.86-3.37C395.69,351.58,381.74,346.44,370.83,355Z" transform="translate(0 -0.87)" fill="#e54c4c"/><path d="M390.5,351.92c.46-.09.53.65.06.74A130.22,130.22,0,0,1,372,355.09a.37.37,0,0,1-.07-.73A131.83,131.83,0,0,0,390.5,351.92Z" transform="translate(0 -0.87)" fill="#ad3434"/><path d="M369.09,360.72s11.07,6.83,22.67,1.38C391.76,362.1,380.28,355.08,369.09,360.72Z" transform="translate(0 -0.87)" fill="#e54c4c"/><path d="M387.09,361.5c.43,0,.36.66-.07.66a118,118,0,0,1-16.91-1.1c-.43-.06-.36-.73.07-.67A119.48,119.48,0,0,0,387.09,361.5Z" transform="translate(0 -0.87)" fill="#ad3434"/><path d="M367.9,364.51s7.41,8.82,18.69,7.48C386.59,372,378.89,362.88,367.9,364.51Z" transform="translate(0 -0.87)" fill="#e54c4c"/><path d="M382.83,370.18c.36.11.12.65-.24.54a105.76,105.76,0,0,1-13.93-5.65c-.34-.17-.1-.71.25-.54A105.63,105.63,0,0,0,382.83,370.18Z" transform="translate(0 -0.87)" fill="#ad3434"/><path d="M366.91,368.78s4,8.28,13,9.46C379.89,378.24,375.72,369.68,366.91,368.78Z" transform="translate(0 -0.87)" fill="#e54c4c"/><path d="M377.34,376.1c.25.16,0,.53-.3.37a83.83,83.83,0,0,1-9.65-7.11.24.24,0,0,1,0-.34.23.23,0,0,1,.29,0A83.83,83.83,0,0,0,377.34,376.1Z" transform="translate(0 -0.87)" fill="#ad3434"/><path d="M376.55,324.25s-17.69-10.74-18.39-31.12C358.16,293.13,376.42,304.3,376.55,324.25Z" transform="translate(0 -0.87)" fill="#e54c4c"/><path d="M362.4,299.31c-.31-.62-1.2,0-.89.58A189.4,189.4,0,0,0,375.33,323c.4.56,1.29,0,.9-.58A188.72,188.72,0,0,1,362.4,299.31Z" transform="translate(0 -0.87)" fill="#ad3434"/><path d="M375.19,333.72s-16.9-6-21.05-23.21C354.14,310.51,371.6,316.81,375.19,333.72Z" transform="translate(0 -0.87)" fill="#e54c4c"/><path d="M358.82,315c-.37-.47-1,.18-.65.65A163.74,163.74,0,0,0,374,332.91c.43.41,1.09-.24.65-.65A164.74,164.74,0,0,1,358.82,315Z" transform="translate(0 -0.87)" fill="#ad3434"/><path d="M373.72,342.41s-17.58-3.54-24.16-20C349.56,322.46,367.74,326.19,373.72,342.41Z" transform="translate(0 -0.87)" fill="#e54c4c"/><path d="M354.84,326.24c-.43-.4-1,.34-.56.74a164.51,164.51,0,0,0,18.09,14.81c.49.34,1.05-.4.56-.74A164.51,164.51,0,0,1,354.84,326.24Z" transform="translate(0 -0.87)" fill="#ad3434"/><path d="M372.51,349.13s-16.46-1-24.54-15.09C348,334,365,335.12,372.51,349.13Z" transform="translate(0 -0.87)" fill="#e54c4c"/><path d="M353.26,336.81c-.45-.32-.85.43-.41.74a150.13,150.13,0,0,0,18.36,11.18c.48.25.9-.49.41-.75A150.06,150.06,0,0,1,353.26,336.81Z" transform="translate(0 -0.87)" fill="#ad3434"/><path d="M370.46,356.32s-14.36.25-22.31-11.45C348.15,344.87,363,344.66,370.46,356.32Z" transform="translate(0 -0.87)" fill="#e54c4c"/><path d="M352.92,346.92c-.41-.24-.71.43-.31.67a130.06,130.06,0,0,0,16.69,8.47c.44.19.75-.48.31-.67A130.06,130.06,0,0,1,352.92,346.92Z" transform="translate(0 -0.87)" fill="#ad3434"/><path d="M368.86,361.3s-12.71,2.75-21.84-6.25C347,355.05,360.18,352.26,368.86,361.3Z" transform="translate(0 -0.87)" fill="#e54c4c"/><path d="M351.63,356c-.41-.15-.56.5-.16.65a119.78,119.78,0,0,0,16.32,4.59c.42.08.58-.57.15-.66A119.61,119.61,0,0,1,351.63,356Z" transform="translate(0 -0.87)" fill="#ad3434"/><path d="M367.74,365.8s-9.93,5.86-20.12.83C347.62,366.63,357.91,360.61,367.74,365.8Z" transform="translate(0 -0.87)" fill="#e54c4c"/><path d="M351.77,366.18c-.38,0-.33.58.05.59a107.4,107.4,0,0,0,15-.69c.38-.05.33-.64-.05-.59A107.4,107.4,0,0,1,351.77,366.18Z" transform="translate(0 -0.87)" fill="#ad3434"/><path d="M366.22,371.25s-6.53,6.48-15.39,4.6C350.83,375.85,357.6,369.17,366.22,371.25Z" transform="translate(0 -0.87)" fill="#e54c4c"/><path d="M354,374.68c-.3.07-.14.52.15.45a85.14,85.14,0,0,0,11.47-3.48c.28-.11.13-.56-.16-.45A83.17,83.17,0,0,1,354,374.68Z" transform="translate(0 -0.87)" fill="#ad3434"/><ellipse cx="258.52" cy="413.95" rx="218.78" ry="26.3" fill="#e8e8e8"/><rect x="182.13" y="203.35" width="158.14" height="153.71" fill="#a9bcbf"/><path d="M79.69,159.19l38-11.57a6.89,6.89,0,0,1,8.59,4.57h0l5.94,19.47a6.91,6.91,0,0,1-4.58,8.6l-15,4.57-1.87,8.08-6.06-5.66-15,4.58a6.89,6.89,0,0,1-8.59-4.57h0l-5.94-19.48A6.88,6.88,0,0,1,79.69,159.19Z" transform="translate(0 -0.87)" fill="#f4b990"/><path d="M91.08,170.83a6.49,6.49,0,0,1,11-6.3,6.5,6.5,0,1,1,12.86,1.89,6.72,6.72,0,0,1-.59,1.91h0l-.08.17-.1.17-6.88,12.93-12.73-6.79A6.48,6.48,0,0,1,91.08,170.83Z" transform="translate(0 -0.87)" fill="#e54c4c"/><path d="M133.41,107.89l29.78,5.32a5.25,5.25,0,0,1,4.24,6.09l-2.73,15.27a5.24,5.24,0,0,1-6.08,4.24h0l-11.79-2.11-4.07,4.83-2.14-5.94-11.78-2.1a5.26,5.26,0,0,1-4.25-6.09l2.73-15.27A5.25,5.25,0,0,1,133.41,107.89Z" transform="translate(0 -0.87)" fill="#f4b990"/><path d="M137.1,119.73a5,5,0,0,1,9.64-.45,4.95,4.95,0,0,1,8.07,5.73,5.08,5.08,0,0,1-1.07,1.1h0l-.12.08-.12.09-9.16,6.38-6.28-9A4.9,4.9,0,0,1,137.1,119.73Z" transform="translate(0 -0.87)" fill="#e54c4c"/><path d="M88,95.54l21.35-6.19A3.85,3.85,0,0,1,114.13,92v0l3.18,10.94a3.85,3.85,0,0,1-2.61,4.78h0l-8.44,2.45-1.11,4.51-3.35-3.22-8.44,2.45a3.85,3.85,0,0,1-4.78-2.61h0l-3.17-11A3.85,3.85,0,0,1,88,95.54Z" transform="translate(0 -0.87)" fill="#f4b990"/><path d="M94.31,102.14a3.63,3.63,0,0,1,6.2-3.44,3.64,3.64,0,0,1,7.19,1.14,3.69,3.69,0,0,1-.35,1.08h0v.19l-4,7.18-7.07-3.89A3.63,3.63,0,0,1,94.31,102.14Z" transform="translate(0 -0.87)" fill="#e54c4c"/><path d="M449.86,123.4l30.25,11.46a5.6,5.6,0,0,1,3.26,7.23l-5.88,15.51a5.6,5.6,0,0,1-7.23,3.26l-12-4.54L453,160.6l-1-6.67-12-4.53a5.61,5.61,0,0,1-3.26-7.24l5.88-15.51a5.61,5.61,0,0,1,7.24-3.25Z" transform="translate(0 -0.87)" fill="#f4b990"/><path d="M468.88,140.47l-3.44-1.31a8.76,8.76,0,0,0,2.58-3.71,1.4,1.4,0,0,0-2.47-1.3,7,7,0,0,1-3.28,2.66,4.19,4.19,0,0,1-3,0h0a2.3,2.3,0,0,0-3,1.29v0L453,146.73a2.29,2.29,0,0,0,1.3,3l0,0,9.65,3.66a2.61,2.61,0,0,0,3.36-1.51l3-8a2.6,2.6,0,0,0-1.42-3.39Z" transform="translate(0 -0.87)" fill="#e54c4c"/><rect x="446.09" y="139.2" width="11.06" height="4.12" rx="0.37" transform="translate(159.51 512.67) rotate(-69.25)" fill="#e54c4c"/><path d="M385,124l23.38-8.3a4.3,4.3,0,0,1,5.49,2.61l4.25,12a4.28,4.28,0,0,1-2.59,5.48h0l-9.22,3.2-.94,5.09-3.94-3.36L392.17,144a4.3,4.3,0,0,1-5.49-2.62h0l-4.26-12A4.29,4.29,0,0,1,385,124Z" transform="translate(0 -0.87)" fill="#f4b990"/><path d="M404.62,124.5l-2.66.94a6.75,6.75,0,0,0-.33-3.45,1.07,1.07,0,0,0-1.35-.68h0a1.06,1.06,0,0,0-.71,1.13,5.44,5.44,0,0,1-.6,3.19,3.14,3.14,0,0,1-1.78,1.5h0a1.77,1.77,0,0,0-1.07,2.25l2.36,6.64a1.75,1.75,0,0,0,2.25,1.07h0l7.46-2.65a2,2,0,0,0,1.21-2.55l-2.2-6.19A2,2,0,0,0,404.62,124.5Z" transform="translate(0 -0.87)" fill="#e54c4c"/><rect x="391.8" y="130.83" width="3.15" height="8.45" rx="0.37" transform="translate(-22.53 137.06) rotate(-19.34)" fill="#e54c4c"/><path d="M426.06,84.44l16.36,4.62a2.93,2.93,0,0,1,2,3.64l-2.37,8.39a3,3,0,0,1-3.63,2l-6.42-1.8-2.54,2.48-.87-3.44-6.48-1.83a3,3,0,0,1-2-3.64l2.37-8.39A2.94,2.94,0,0,1,426.06,84.44Z" transform="translate(0 -0.87)" fill="#f4b990"/><path d="M436.8,92.51,434.93,92a4.59,4.59,0,0,0,1.18-2.06.74.74,0,0,0-1.35-.57,3.61,3.61,0,0,1-1.6,1.54,2.14,2.14,0,0,1-1.59.14h0a1.22,1.22,0,0,0-1.49.84l-1.31,4.64a1.21,1.21,0,0,0,.84,1.49l5.22,1.48a1.39,1.39,0,0,0,1.69-1v0l1.22-4.33A1.37,1.37,0,0,0,436.8,92.51Z" transform="translate(0 -0.87)" fill="#e54c4c"/><rect x="424.87" y="92.63" width="5.82" height="2.16" rx="0.37" transform="translate(221.34 479.06) rotate(-74.23)" fill="#e54c4c"/><rect x="63.02" y="203.35" width="295.07" height="197.3" rx="15.25" fill="#0e1416"/><rect x="70.46" y="211.84" width="280.19" height="170.01" rx="5.99" fill="#2a363b"/><path d="M373.44,388.55a25.79,25.79,0,0,1-5.18,15.55,24.79,24.79,0,0,1-2.42,2.8,25.86,25.86,0,0,1-18.36,7.61H73.62a26,26,0,0,1-26-26Z" transform="translate(0 -0.87)" fill="#2a363b"/><path d="M352.66,388.87H239v-.32H182.12v.32H68.43s60.12,1.8,114.39,2.33a5.59,5.59,0,0,0,4.92,3h45.63a5.56,5.56,0,0,0,4.91-3C292.55,390.67,352.66,388.87,352.66,388.87Z" transform="translate(0 -0.87)" fill="#0e1416"/><path d="M368.26,404.1a24.79,24.79,0,0,1-2.42,2.8,25.86,25.86,0,0,1-18.36,7.61H73.62A25.88,25.88,0,0,1,52.84,404.1Z" transform="translate(0 -0.87)" fill="#0e1416"/><polygon points="88.94 385.83 75.26 385.83 73.23 388.01 90.96 388.01 88.94 385.83" fill="#2a363b"/><polygon points="106.06 385.83 92.38 385.83 90.36 388.01 108.09 388.01 106.06 385.83" fill="#2a363b"/><polygon points="123.19 385.83 109.51 385.83 107.49 388.01 125.21 388.01 123.19 385.83" fill="#2a363b"/><polygon points="140.32 385.83 126.64 385.83 124.61 388.01 142.34 388.01 140.32 385.83" fill="#2a363b"/><polygon points="157.44 385.83 143.76 385.83 141.74 388.01 159.47 388.01 157.44 385.83" fill="#2a363b"/><polygon points="174.57 385.83 160.89 385.83 158.87 388.01 176.59 388.01 174.57 385.83" fill="#2a363b"/><polygon points="191.7 385.83 178.02 385.83 175.99 388.01 193.72 388.01 191.7 385.83" fill="#2a363b"/><polygon points="208.82 385.83 195.14 385.83 193.12 388.01 210.85 388.01 208.82 385.83" fill="#2a363b"/><polygon points="225.95 385.83 212.27 385.83 210.25 388.01 227.97 388.01 225.95 385.83" fill="#2a363b"/><polygon points="243.08 385.83 229.4 385.83 227.37 388.01 245.1 388.01 243.08 385.83" fill="#2a363b"/><polygon points="260.2 385.83 246.52 385.83 244.5 388.01 262.23 388.01 260.2 385.83" fill="#2a363b"/><polygon points="277.33 385.83 263.65 385.83 261.63 388.01 279.35 388.01 277.33 385.83" fill="#2a363b"/><polygon points="294.46 385.83 280.78 385.83 278.75 388.01 296.48 388.01 294.46 385.83" fill="#2a363b"/><polygon points="311.58 385.83 297.9 385.83 295.88 388.01 313.61 388.01 311.58 385.83" fill="#2a363b"/><polygon points="328.71 385.83 315.03 385.83 313.01 388.01 330.73 388.01 328.71 385.83" fill="#2a363b"/><polygon points="345.84 385.83 332.16 385.83 330.13 388.01 347.86 388.01 345.84 385.83" fill="#2a363b"/><rect x="89.2" y="223.5" width="86.36" height="52.85" fill="#a9bcbf"/><rect x="86.31" y="220.2" width="86.36" height="52.85" fill="#f4b990"/><rect x="89.62" y="223.7" width="79.76" height="45.85" fill="#ffdbc7"/><polygon points="92.07 267.55 167.98 267.55 146.22 234.79 121.13 259.87 109.31 250.81 92.07 267.55" fill="#f4b990"/><path d="M125.35,241.58a4.19,4.19,0,1,1-4.19-4.19,4.2,4.2,0,0,1,4.19,4.19Z" transform="translate(0 -0.87)" fill="#f4b990"/><rect x="89.2" y="286.14" width="86.36" height="52.85" fill="#a9bcbf"/><rect x="86.31" y="282.85" width="86.36" height="52.85" fill="#f4b990"/><rect x="89.62" y="286.35" width="79.76" height="45.85" fill="#ffdbc7"/><rect x="92.58" y="327.95" width="73.82" height="1.92" fill="#f4b990"/><rect x="92.58" y="327.95" width="33.92" height="1.92" fill="#e54c4c"/><circle cx="129.49" cy="308.24" r="14.76" transform="translate(-187.15 414.68) rotate(-85.93)" fill="#f4b990"/><polygon points="140.05 307.37 131.6 312.25 123.15 317.12 123.15 307.37 123.15 297.61 131.6 302.49 140.05 307.37" fill="#e54c4c"/><path d="M101.17,351.61a6.3,6.3,0,1,0,6.29,6.31h0A6.3,6.3,0,0,0,101.17,351.61Z" transform="translate(0 -0.87)" fill="#a9bcbf"/><path d="M99.83,362.87a6.29,6.29,0,1,1,6.29-6.29,6.29,6.29,0,0,1-6.29,6.29Z" transform="translate(0 -0.87)" fill="#e54c4c"/><path d="M103.45,354.29a3.21,3.21,0,0,1-.75.21c.12,0,.3-.24.37-.33a1.29,1.29,0,0,0,.25-.44h0a3.91,3.91,0,0,1-.88.34h-.06l-.08-.08a1.49,1.49,0,0,0-1.08-.36,1.47,1.47,0,0,0-.62.17,1.64,1.64,0,0,0-.5.41,1.48,1.48,0,0,0-.3.6,1.67,1.67,0,0,0,0,.63h0a4.79,4.79,0,0,1-3-1.54h-.08a1.52,1.52,0,0,0,.26,1.81l.18.16a1.33,1.33,0,0,1-.58-.16h-.06c-.06,0,0,.11,0,.17a1.59,1.59,0,0,0,1,1.24.6.6,0,0,0,.19.06,1.82,1.82,0,0,1-.57,0s-.06,0,0,.05a1.63,1.63,0,0,0,1.2,1h.17a1.89,1.89,0,0,1-.83.43,2.91,2.91,0,0,1-1.24.16h-.1v.05l.26.15a4,4,0,0,0,.83.34,4.43,4.43,0,0,0,4.31-1,4.57,4.57,0,0,0,1.19-3.3c0-.05.06-.08.09-.1a2.85,2.85,0,0,0,.59-.61.13.13,0,0,0,0-.12h0Z" transform="translate(0 -0.87)" fill="#fff"/><path d="M131.64,351.61a6.3,6.3,0,1,0,6.3,6.3h0A6.31,6.31,0,0,0,131.64,351.61Z" transform="translate(0 -0.87)" fill="#a9bcbf"/><path d="M130.31,362.87a6.29,6.29,0,1,1,6.29-6.29,6.29,6.29,0,0,1-6.29,6.29Z" transform="translate(0 -0.87)" fill="#e54c4c"/><path d="M129.32,356.61v3.65a.09.09,0,0,0,.09.09h1.36a.09.09,0,0,0,.09-.09v-3.71h1a.09.09,0,0,0,.09-.08l.09-1.12a.08.08,0,0,0-.06-.1h-1.11v-.8a.35.35,0,0,1,.34-.33H132a.09.09,0,0,0,.09-.09h0v-1.11a.09.09,0,0,0-.08-.1h-1.29a1.36,1.36,0,0,0-1.36,1.36v1.08h-.68a.09.09,0,0,0-.09.09v1.12a.09.09,0,0,0,.09.09h.68Z" transform="translate(0 -0.87)" fill="#fff" fill-rule="evenodd"/><path d="M162.08,351.77a6.25,6.25,0,1,0,6.25,6.25A6.25,6.25,0,0,0,162.08,351.77Z" transform="translate(0 -0.87)" fill="#a9bcbf"/><circle cx="160.74" cy="355.78" r="5.47" fill="#fff"/><path d="M160.74,363a6.25,6.25,0,1,1,6.26-6.3,6.25,6.25,0,0,1-6.26,6.3Zm2.11-8.79a.47.47,0,1,0,.46.48h0a.47.47,0,0,0-.4-.52h-.06Zm-2.06.6a1.47,1.47,0,1,0,.11-.05h-.11Zm0,3.18a1.27,1.27,0,1,0,0-.05Zm3.92-2.86a2.37,2.37,0,0,0-2.37-2.36h-3.12a2.38,2.38,0,0,0-2.37,2.36v3.13a2.37,2.37,0,0,0,2.37,2.37h3.12a2.37,2.37,0,0,0,2.37-2.37Zm-.74,3.13a1.63,1.63,0,0,1-1.63,1.63h-3.12a1.63,1.63,0,0,1-1.63-1.63h0v-3.13a1.63,1.63,0,0,1,1.63-1.62h3.12a1.63,1.63,0,0,1,1.63,1.62Z" transform="translate(0 -0.87)" fill="#e54c4c"/><rect x="76.47" y="220.2" width="2.51" height="153.33" rx="1.18" fill="#0e1416"/><circle cx="77.73" cy="292.61" r="2.2" fill="#f4b990"/><rect x="177.84" y="353.15" width="162.42" height="7.82" rx="3.21" fill="#0e1416"/><rect x="182.12" y="96.2" width="153.87" height="260.86" fill="#ffdbc7"/><path d="M206.24,125.28h-9.92V118h28.92v7.24h-9.87v25h-9.13Z" transform="translate(0 -0.87)" fill="#e84a5f"/><rect x="237.39" y="111.04" width="37.49" height="2.14" fill="#f4b990"/><rect x="237.39" y="118.33" width="37.49" height="2.14" fill="#f4b990"/><rect x="237.39" y="125.61" width="37.49" height="2.14" fill="#f4b990"/><rect x="237.39" y="132.9" width="37.49" height="2.14" fill="#f4b990"/><rect x="237.39" y="140.19" width="37.49" height="2.14" fill="#f4b990"/><rect x="283.42" y="111.04" width="37.49" height="2.14" fill="#f4b990"/><rect x="283.42" y="118.33" width="37.49" height="2.14" fill="#f4b990"/><rect x="283.42" y="125.61" width="37.49" height="2.14" fill="#f4b990"/><rect x="283.42" y="132.9" width="37.49" height="2.14" fill="#f4b990"/><rect x="283.42" y="140.19" width="37.49" height="2.14" fill="#f4b990"/><rect x="237.39" y="155.08" width="37.49" height="2.14" fill="#f4b990"/><rect x="237.39" y="162.37" width="37.49" height="2.14" fill="#f4b990"/><rect x="237.39" y="169.66" width="37.49" height="2.14" fill="#f4b990"/><rect x="237.39" y="176.95" width="37.49" height="2.14" fill="#f4b990"/><rect x="237.39" y="184.23" width="37.49" height="2.14" fill="#f4b990"/><rect x="283.42" y="155.08" width="37.49" height="2.14" fill="#f4b990"/><rect x="283.42" y="162.37" width="37.49" height="2.14" fill="#f4b990"/><rect x="283.42" y="169.66" width="37.49" height="2.14" fill="#f4b990"/><rect x="283.42" y="176.95" width="37.49" height="2.14" fill="#f4b990"/><rect x="283.42" y="184.23" width="37.49" height="2.14" fill="#f4b990"/><rect x="196.14" y="202.66" width="124.77" height="5.36" fill="#e54c4c"/><rect x="195.63" y="220.85" width="56.23" height="2.14" fill="#f4b990"/><rect x="195.63" y="228.14" width="56.23" height="2.14" fill="#f4b990"/><rect x="195.63" y="235.43" width="56.23" height="2.14" fill="#f4b990"/><rect x="195.63" y="242.72" width="56.23" height="2.14" fill="#f4b990"/><rect x="195.63" y="250" width="56.23" height="2.14" fill="#f4b990"/><rect x="264.68" y="220.85" width="56.23" height="2.14" fill="#f4b990"/><rect x="264.68" y="228.14" width="56.23" height="2.14" fill="#f4b990"/><rect x="264.68" y="235.43" width="56.23" height="2.14" fill="#f4b990"/><rect x="264.68" y="242.72" width="56.23" height="2.14" fill="#f4b990"/><rect x="264.68" y="250" width="56.23" height="2.14" fill="#f4b990"/><rect x="195.63" y="265.79" width="56.23" height="2.14" fill="#f4b990"/><rect x="195.63" y="273.08" width="56.23" height="2.14" fill="#f4b990"/><rect x="195.63" y="280.36" width="56.23" height="2.14" fill="#f4b990"/><rect x="195.63" y="287.65" width="56.23" height="2.14" fill="#f4b990"/><rect x="195.63" y="294.94" width="56.23" height="2.14" fill="#f4b990"/><rect x="264.68" y="265.79" width="56.23" height="2.14" fill="#f4b990"/><rect x="264.68" y="273.08" width="56.23" height="2.14" fill="#f4b990"/><rect x="264.68" y="280.36" width="56.23" height="2.14" fill="#f4b990"/><rect x="264.68" y="287.65" width="56.23" height="2.14" fill="#f4b990"/><rect x="264.68" y="294.94" width="56.23" height="2.14" fill="#f4b990"/><rect x="195.63" y="310.72" width="56.23" height="2.14" fill="#f4b990"/><rect x="195.63" y="318.01" width="56.23" height="2.14" fill="#f4b990"/><rect x="195.63" y="325.3" width="56.23" height="2.14" fill="#f4b990"/><rect x="195.63" y="332.59" width="56.23" height="2.14" fill="#f4b990"/><rect x="195.63" y="339.87" width="56.23" height="2.14" fill="#f4b990"/><rect x="195.63" y="162.64" width="30.73" height="2.42" fill="#e54c4c"/><rect x="195.63" y="169.9" width="30.73" height="2.42" fill="#e54c4c"/><rect x="195.63" y="177.15" width="30.73" height="2.42" fill="#e54c4c"/><circle cx="251.14" cy="349.63" r="1.56" fill="#f4b990"/><circle cx="258.52" cy="349.63" r="1.56" fill="#f4b990"/><circle cx="265.91" cy="349.63" r="1.56" fill="#f4b990"/><polyline points="322.89 344.19 266.6 344.19 266.6 309.74 322.89 309.74" fill="#e8d7cd"/><rect x="264.72" y="307.59" width="56.3" height="34.45" fill="#e54c4c"/><rect x="266.87" y="309.87" width="51.99" height="29.89" fill="#ffdbc7"/><polygon points="268.47 338.45 317.96 338.45 303.77 317.1 287.42 333.45 279.71 327.54 268.47 338.45" fill="#e54c4c"/><path d="M290.16,321.83a2.73,2.73,0,1,1-2.73-2.73h0a2.72,2.72,0,0,1,2.72,2.72Z" transform="translate(0 -0.87)" fill="#e54c4c"/><path d="M336,115.41v247H182.12v-14.6C258,291.06,313.39,207.41,336,115.41Z" transform="translate(0 -0.87)" fill="#fff0e9"/><path d="M407.85,407.18c-6.58,4.83-19,3.51-18.84,9.49,14.5,1.54,21.79-1.94,21.79-1.94v1.92l5.06-.64a21.58,21.58,0,0,0-.6-8.83Z" transform="translate(0 -0.87)"/><path d="M423,300.08c-4.29,15-9.24,32-13.29,48.11l4.61,48.53,1,10.45s-4,3.54-7.72.2c0,0-1.11-3.78-2.69-9.55-3.91-14.44-10.68-41.43-10-53.38.9-16.73,8.75-68.51,8.75-68.51l22.78,3.8Z" transform="translate(0 -0.87)" fill="#9e6c52"/><path d="M415.3,407.17s-4,3.54-7.72.2c0,0-1.11-3.78-2.69-9.55l9.42-1.1Z" transform="translate(0 -0.87)" fill="#f4b990"/><path d="M464.11,410.42c-3.12,2.41-4.25,2.41-7.7.72-1.22-3.79-2.46-7.73-3.71-11.77C439,355.4,423.75,300,423,300.08l-1.85-20.69,23.65-1.92c7.69,62.47,14,102.35,17.18,120.84C463.35,406.41,464.11,410.42,464.11,410.42Z" transform="translate(0 -0.87)" fill="#9e6c52"/><path d="M464.11,410.42c-3.12,2.41-4.25,2.41-7.7.72-1.22-3.79-2.46-7.73-3.71-11.77l9.27-1.06C463.35,406.41,464.11,410.42,464.11,410.42Z" transform="translate(0 -0.87)" fill="#f4b990"/><path d="M462,409.33a8.85,8.85,0,0,0-4.66.62,3,3,0,0,0-1.57,1.17c-.55,1.25-1.71,2.52-1.51,4.25s4.18,2.48,6.52,2.48,7-1.28,7.13-3.08-1.78-4.4-3.46-5A12.72,12.72,0,0,0,462,409.33Z" transform="translate(0 -0.87)"/><path d="M423.08,300.73,411.43,346l-17.88-3.65s3.91-45.79,7.39-63.82l44.64,1.13,8.62,60.25-18.4,4.47Z" transform="translate(0 -0.87)" fill="#2a363b"/><path d="M393.29,337.23l-.45,5.24a.94.94,0,0,0,.58,1,47.81,47.81,0,0,0,17.68,3.37,1,1,0,0,0,.89-.7l1.56-5.75a.93.93,0,0,0-.63-1.15,85.14,85.14,0,0,0-18.64-2.83A1,1,0,0,0,393.29,337.23Z" transform="translate(0 -0.87)" fill="#0e1416"/><path d="M434.06,339.67l1.47,5.05a.94.94,0,0,0,.89.68,47.84,47.84,0,0,0,17.7-3.26.93.93,0,0,0,.57-1l-.62-5.93a.92.92,0,0,0-1-.84h0a84.06,84.06,0,0,0-18.39,4.1A1,1,0,0,0,434.06,339.67Z" transform="translate(0 -0.87)" fill="#0e1416"/><path d="M423.33,281.92c.09-.76-1.11-.76-1.2,0a74.21,74.21,0,0,0,0,16.32c.08.76,1.28.77,1.2,0A74.21,74.21,0,0,1,423.33,281.92Z" transform="translate(0 -0.87)" fill="#0e1416"/><path d="M420.92,296.53a21.12,21.12,0,0,1-1.48-14.66.6.6,0,1,0-1.16-.32h0a22.45,22.45,0,0,0,1.6,15.58C420.22,297.83,421.26,297.22,420.92,296.53Z" transform="translate(0 -0.87)" fill="#0e1416"/><path d="M433.48,206s-18.39,22.07-81.69,34l-1.3-7.45s39.94-9.8,63.75-28.27Z" transform="translate(0 -0.87)" fill="#9e6c52"/><path d="M344.37,230.73c-.54,0-1.35,0-1.65.56a1,1,0,0,0,.57,1.29l.11,0a18.82,18.82,0,0,0,2.35.48l.77.15a15.18,15.18,0,0,1-4.79.54,15.47,15.47,0,0,1-3.1-.46c-.77-.2-1.71-.48-2.32.24a1,1,0,0,0-.12,1.17,1.29,1.29,0,0,0,.08,1.35,1.81,1.81,0,0,0,.29.33.39.39,0,0,0-.15.52,3.65,3.65,0,0,0,1.52,1.47.39.39,0,0,0,.16.41,12.81,12.81,0,0,0,10,2.34,9.62,9.62,0,0,0,4.76-2.06c1.51-1.43,1.12-3.55.63-5.34a.54.54,0,0,0-.07-.13.38.38,0,0,0,0-.55l-.06-.05A15.14,15.14,0,0,0,344.37,230.73Z" transform="translate(0 -0.87)" fill="#9e6c52"/><path d="M414.36,204.13s-19.82,12.74-29.87,16.15l6.76,9.9s17.28-6,22.48-9.66Z" transform="translate(0 -0.87)" fill="#e54c4c"/><path d="M385.39,219.54l-3.71,1.31a.88.88,0,0,0-.56,1.09c.59,2,2.38,7,5.91,9.93a.89.89,0,0,0,.9.14l4.2-1.66a.86.86,0,0,0,.51-1.13v0c-.77-1.87-2.89-6.44-6.35-9.47A.87.87,0,0,0,385.39,219.54Z" transform="translate(0 -0.87)" fill="#ad3434"/><path d="M426.22,202.25l-10.28,2.16s-7.72,24.77-13.15,75.41c30.56,10,42.11,3.94,42.11,3.94-1.46-13.57,3.81-72.22.6-76.16-2.91-1.55-9.52-4.3-9.52-4.3Z" transform="translate(0 -0.87)" fill="#ffdbc7"/><path d="M429.09,287.65C431.65,270,436,203.3,436,203.3s7.94,2.61,10.58,4.86-.53,56.06.81,77.78C441.91,288.06,434.77,288.34,429.09,287.65Z" transform="translate(0 -0.87)" fill="#e54c4c"/><path d="M445,281.39a60.53,60.53,0,0,1-13.63,1.1.5.5,0,0,0,0,1,61.15,61.15,0,0,0,13.9-1.14C445.87,282.22,445.61,281.26,445,281.39Z" transform="translate(0 -0.87)" fill="#ad3434"/><path d="M426.22,202.25s-9.37,1-11.81,1.86-15.35,70.26-16.25,77.24a38.8,38.8,0,0,0,18.24,5.84S423.5,222.34,426.22,202.25Z" transform="translate(0 -0.87)" fill="#e54c4c"/><path d="M414.44,281.29a44.8,44.8,0,0,1-13.76-4.48c-.57-.29-1.07.56-.5.86a45.59,45.59,0,0,0,14,4.58C414.8,282.35,415.07,281.39,414.44,281.29Z" transform="translate(0 -0.87)" fill="#ad3434"/><path d="M415.45,269.9a1,1,0,1,0,1,1A1,1,0,0,0,415.45,269.9Z" transform="translate(0 -0.87)" fill="#ad3434"/><path d="M416.37,264.55a1,1,0,1,0,1,1A1,1,0,0,0,416.37,264.55Z" transform="translate(0 -0.87)" fill="#ad3434"/><path d="M417.13,259.58a1,1,0,1,0,1,1A1,1,0,0,0,417.13,259.58Z" transform="translate(0 -0.87)" fill="#ad3434"/><path d="M417.74,255.15a1,1,0,1,0,1,1A1,1,0,0,0,417.74,255.15Z" transform="translate(0 -0.87)" fill="#ad3434"/><path d="M446.1,181.27a45.73,45.73,0,0,1-6.82,10.61c-1,1.13-2.18,2.48-3.83,2.34s-2.67-1.8-3.35-3.24c-3.12-6.61-10.85-9.39-14.07-16a10.6,10.6,0,0,1-1-3,3.63,3.63,0,0,1-1.24-3.29,10.91,10.91,0,0,1,8.69-10,2,2,0,0,0,.08,1.2,14.14,14.14,0,0,1,6.77-1.42,1.32,1.32,0,0,0,0,1.22,11.4,11.4,0,0,1,6.08-.77,1,1,0,0,0-.51.81,8.47,8.47,0,0,1,4.2,1.31,4,4,0,0,1,1.82,3.63,6.9,6.9,0,0,1,3.35,3.76,14.14,14.14,0,0,1,.73,5C447,176,447.19,178.93,446.1,181.27Z" transform="translate(0 -0.87)" fill="#1b1b28"/><path d="M440.86,169.84c-3.53-8.56-19.33-7.47-21.23-1.18-3.9,12.94-2.61,18.57.73,22.09,3.86,4.07,6.68,3.91,5.86,11.5,0,6.21,7.28,5.43,9.76,1.05a46.11,46.11,0,0,1,5.24-17.3S442.32,173.36,440.86,169.84Z" transform="translate(0 -0.87)" fill="#9e6c52"/><path d="M430.05,181.27a1,1,0,1,1-.89-1.1,1,1,0,0,1,.89,1.1Z" transform="translate(0 -0.87)"/><path d="M429.09,180.89a.38.38,0,0,1-.36.38.38.38,0,0,1-.38-.37.28.28,0,0,1,0-.09.36.36,0,0,1,.4-.32h0A.37.37,0,0,1,429.09,180.89Z" transform="translate(0 -0.87)" fill="#fff"/><path d="M422.36,180.44a1,1,0,1,1-.89-1.1h0A1,1,0,0,1,422.36,180.44Z" transform="translate(0 -0.87)"/><path d="M421.4,180.06a.37.37,0,0,1-.4.33.38.38,0,0,1-.33-.41.37.37,0,0,1,.45-.27.36.36,0,0,1,.28.35Z" transform="translate(0 -0.87)" fill="#fff"/><path d="M423.45,176.62a3.27,3.27,0,0,0-4.07-.24.66.66,0,0,0-.18.81.48.48,0,0,0,.64.23l.07,0a2.31,2.31,0,0,1,1.75-.38,2.22,2.22,0,0,1,.86.34c.24.15.45.38.75.26a.65.65,0,0,0,.26-.88.83.83,0,0,0-.08-.12Z" transform="translate(0 -0.87)" fill="#1b1b28"/><path d="M427.32,177a4.15,4.15,0,0,1,4.62.7.59.59,0,0,1,0,.83.62.62,0,0,1-.84,0,2.91,2.91,0,0,0-1.88-.77,3.35,3.35,0,0,0-1,.13c-.3.09-.6.27-.9.08a.58.58,0,0,1-.17-.18A.59.59,0,0,1,427.32,177Z" transform="translate(0 -0.87)" fill="#1b1b28"/><path d="M423.31,183.27a.14.14,0,0,1-.12-.11c-.15-.87.17-1.13.46-1.19a1.27,1.27,0,0,1,1,.34.15.15,0,0,1,0,.18.13.13,0,0,1-.18,0,1,1,0,0,0-.79-.28c-.27,0-.35.35-.26.89a.13.13,0,0,1-.11.15h0Z" transform="translate(0 -0.87)" fill="#84533d"/><path d="M426.68,186.39a1.82,1.82,0,1,1-3.39-1.32,1.81,1.81,0,0,1,1.95-1.14,2,2,0,0,1,1.45,2.43Z" transform="translate(0 -0.87)" fill="#8e4136"/><path d="M426.53,187a3.41,3.41,0,0,0-.83-.23c-1.09-.15-2,.26-2.13.91h0a1.56,1.56,0,0,0,1.06.68A1.88,1.88,0,0,0,426.53,187Z" transform="translate(0 -0.87)" fill="#c16b5b"/><path d="M425.24,183.93a1.54,1.54,0,0,0-1.15.33,1.41,1.41,0,0,0,1,.6,1.44,1.44,0,0,0,1.15-.29A1.56,1.56,0,0,0,425.24,183.93Z" transform="translate(0 -0.87)" fill="#fff"/><path d="M418.19,172.49s-.84-3,3.23-7.48c2.6-2.84,9.29-2.89,14.81-1.25s7.7,4.36,7.45,8.42-.39,9.15-.39,9.15l-2.36,1.43c-1.58-1.59-1.89-4.17-2.16-6.38s-.68-4.63-2.37-6.09a6.73,6.73,0,0,0-6-1,46.25,46.25,0,0,0-5.89,2.39A16.32,16.32,0,0,1,418.19,172.49Z" transform="translate(0 -0.87)" fill="#1b1b28"/><path d="M444.59,186.65c-1.5,1.44-3.65,1.64-4.79.45s-.86-3.32.64-4.76,3.65-1.65,4.79-.46S446.09,185.2,444.59,186.65Z" transform="translate(0 -0.87)" fill="#9e6c52"/><path d="M444.28,182.56a2.35,2.35,0,0,0-2-.18,2,2,0,0,0-.83.52,1.14,1.14,0,0,0-.28,1,1.61,1.61,0,0,0,.48.72,1.2,1.2,0,0,1,.33.41.59.59,0,0,1-.26.78.6.6,0,0,1-.58,0,.26.26,0,0,0-.35.09.25.25,0,0,0,.07.35h0a1.1,1.1,0,0,0,.44.15,1.11,1.11,0,0,0,1.23-1,1.13,1.13,0,0,0-.09-.57,1.89,1.89,0,0,0-.44-.57,1.38,1.38,0,0,1-.35-.48.63.63,0,0,1,.17-.55,1,1,0,0,1,.22-.18,1,1,0,0,1,.71.33.93.93,0,0,1,.15.79.26.26,0,0,0,.18.32h0a.26.26,0,0,0,.28-.19,1.42,1.42,0,0,0-.23-1.23,1,1,0,0,0-.36-.31A1.62,1.62,0,0,1,444,183a1,1,0,0,1,.37,1.27.26.26,0,0,0,.45.27h0A1.54,1.54,0,0,0,444.28,182.56Z" transform="translate(0 -0.87)" fill="#84533d"/><path d="M318,202.09l147.67,47.1a5.63,5.63,0,0,1,3.66,7.07h0l-2.66,8.32a5.63,5.63,0,0,1-7.06,3.67l-147.67-47.1h0L318,202.1Z" transform="translate(0 -0.87)" fill="#e54c4c"/><rect x="371.95" y="160.77" width="19.9" height="140.31" transform="translate(46.69 524.69) rotate(-72.47)" fill="#ff847b"/><rect x="378.44" y="160.78" width="6.92" height="140.31" transform="translate(46.69 524.69) rotate(-72.47)" fill="#f4b990"/><rect x="439.2" y="252.99" width="19.98" height="2.79" transform="translate(70.4 604.23) rotate(-72.32)" fill="#f4b990"/><polygon points="318.01 201.24 311.94 220.28 291.5 205.36 286.41 201.66 292.6 201.57 318.01 201.24" fill="#d8a27d"/><path d="M291.5,206.23l-5.09-3.7,6.19-.09A15.12,15.12,0,0,1,291.5,206.23Z" transform="translate(0 -0.87)" fill="#2a363b"/><path d="M446.56,208.16c-2.65,4.12-3.9,9.14-3.06,15.83,5.77,3.27,13.51,8,18.51,14.39,0,0-17.93,1.18-29.68-1.44L430,243.1s38.12,10,43,0S446.56,208.16,446.56,208.16Z" transform="translate(0 -0.87)" fill="#9e6c52"/><path d="M420.63,248.07a.86.86,0,0,0,1.12-.36,35.89,35.89,0,0,0,2-3.64,10.47,10.47,0,0,0,4.77,1,5.17,5.17,0,0,0,4.25-2.13.62.62,0,0,0,.24-.29,6,6,0,0,0,0-4.5,14.37,14.37,0,0,0-2.23-3.52c-.19-.23-.36-.46-.53-.7l-.23-.37-.08-.15v-.06c-.06-.15-.1-.29-.15-.43v-.62a1.57,1.57,0,0,0-.05-.53,1.13,1.13,0,0,0-1.14-.78,1.53,1.53,0,0,0-1,.55,3.09,3.09,0,0,0-.61,2.05,5.06,5.06,0,0,0,.92,2.63l-.74-.07a70.75,70.75,0,0,0-10.89-.31.83.83,0,0,0-.12,1.65l4.18.57,1.36.19-5.84,2.46c-.39.16-.65.36-.57.79s.57.56,1,.54a20.85,20.85,0,0,0,5.23-1.11c-1.11,1.09-2.44,2.56-3.6,3.6a.81.81,0,0,0,0,1.09c.29.34.74.15,1.12,0a31.47,31.47,0,0,0,3.18-2.47c-.53,1-1.24,2.87-1.84,3.85A.83.83,0,0,0,420.63,248.07Z" transform="translate(0 -0.87)" fill="#9e6c52"/><path d="M445.91,207.68S474,228,473.9,242.06L462,238.38s-5.94-7.28-19.07-14.38C442.94,224,441.15,212.06,445.91,207.68Z" transform="translate(0 -0.87)" fill="#e54c4c"/><path d="M460.81,238.45l.41-1,11.65,1a1.54,1.54,0,0,1,1.38,1.17,5.22,5.22,0,0,1-1.88,5.64,1.56,1.56,0,0,1-1.82,0Z" transform="translate(0 -0.87)" fill="#ad3434"/><polygon points="282.27 95.18 265.26 108.76 221.57 65.78 226.41 60.95 197.81 55.24 204.58 82.74 209.67 77.66 264.2 121.7 282.04 104.05 316.3 137.16 282.27 95.18" fill="#e54c4c"/></g></svg>